<?xml version="1.0" standalone="no"?>
<!DOCTYPE svg PUBLIC "-//W3C//DTD SVG 20010904//EN"
 "http://www.w3.org/TR/2001/REC-SVG-20010904/DTD/svg10.dtd">
<svg version="1.0" xmlns="http://www.w3.org/2000/svg"
 width="1600.000000pt" height="1600.000000pt" viewBox="0 0 1600.000000 1600.000000"
 preserveAspectRatio="xMidYMid meet">
<metadata>
Created by potrace 1.11, written by Peter Selinger 2001-2013
</metadata>
<g transform="translate(0.000000,1600.000000) scale(0.100000,-0.100000)"
fill="#000000" stroke="none">
<path d="M2380 12789 c-41 -4 -97 -10 -125 -13 -27 -3 -59 -7 -70 -9 -11 -3
-40 -8 -65 -11 -25 -3 -58 -9 -75 -12 -16 -4 -39 -8 -50 -9 -11 -2 -21 -4 -22
-5 -7 -5 -102 -23 -105 -19 -2 1 -12 -3 -24 -9 -11 -6 -33 -13 -48 -16 -35 -6
-154 -43 -241 -74 -38 -13 -76 -25 -82 -25 -7 0 -13 -4 -13 -9 0 -4 -3 -7 -7
-6 -10 3 -101 -33 -203 -80 -41 -19 -84 -38 -95 -43 -35 -16 -59 -33 -98 -72
-64 -64 -69 -88 -70 -337 0 -200 8 -247 48 -278 38 -30 137 -29 221 3 38 14
74 27 79 28 6 2 21 9 35 17 14 7 27 13 30 13 3 0 16 4 30 9 86 35 343 117 351
112 5 -3 9 0 9 6 0 7 6 10 13 7 6 -2 19 -1 28 4 9 4 29 11 45 14 39 8 59 13
59 15 0 1 11 4 25 7 33 6 54 11 60 13 3 1 8 2 13 1 4 -1 28 4 55 10 95 21 298
39 485 43 158 3 208 1 281 -15 173 -35 323 -95 450 -180 32 -21 61 -39 65 -39
3 0 17 -17 30 -38 14 -20 30 -42 35 -47 32 -31 117 -207 150 -310 47 -151 50
-182 51 -527 l0 -328 -30 6 c-16 3 -39 7 -50 9 -11 2 -22 4 -25 6 -3 1 -9 3
-15 4 -5 1 -23 4 -40 8 -52 13 -79 18 -105 22 -14 1 -36 6 -50 9 -14 3 -45 9
-70 12 -25 3 -54 8 -65 10 -48 10 -285 44 -340 49 -206 18 -570 25 -695 12
-69 -7 -176 -25 -215 -37 -16 -5 -43 -11 -60 -14 -16 -2 -31 -5 -32 -6 -2 -2
-6 -3 -10 -4 -5 -1 -33 -10 -63 -21 -30 -11 -59 -18 -64 -17 -4 2 -13 -1 -20
-6 -6 -5 -35 -17 -63 -27 -29 -11 -53 -23 -53 -29 0 -5 -3 -7 -6 -3 -13 13
-228 -110 -379 -217 -73 -52 -225 -224 -292 -331 -101 -161 -185 -404 -198
-572 -1 -23 -5 -45 -7 -50 -6 -12 -2 -329 5 -383 17 -126 18 -132 62 -270 26
-79 110 -269 125 -280 4 -3 13 -16 20 -29 7 -14 17 -30 21 -35 5 -6 35 -45 67
-86 33 -42 85 -98 118 -125 32 -28 69 -59 82 -70 13 -11 26 -20 30 -20 3 0 15
-8 27 -19 37 -33 124 -80 265 -144 19 -9 38 -17 43 -18 4 -1 9 -3 12 -4 3 -1
8 -3 13 -4 4 -1 39 -11 77 -23 39 -12 84 -24 100 -27 76 -14 94 -17 160 -25
117 -13 432 -5 535 14 8 1 35 6 60 10 25 4 72 14 105 22 33 8 67 16 75 18 8 2
26 8 40 13 14 5 27 9 30 9 12 -1 116 37 129 47 8 6 15 10 15 8 2 -6 55 17 127
53 38 19 69 31 69 27 0 -4 4 -2 8 4 4 6 32 24 62 42 68 38 190 123 255 177 62
52 233 222 252 252 8 13 19 23 23 23 4 0 35 -55 69 -122 34 -68 67 -132 74
-143 118 -193 233 -324 306 -348 41 -13 87 -15 138 -3 20 4 50 23 202 125 20
13 38 27 41 30 3 3 12 11 21 16 68 42 171 119 187 140 12 15 26 42 33 62 12
37 6 117 -10 137 -35 43 -191 391 -191 426 0 9 -3 20 -7 24 -4 3 -8 14 -10 24
-2 9 -5 26 -8 37 -2 11 -6 35 -9 53 -3 17 -9 47 -13 65 -4 17 -8 527 -9 1132
-2 605 -5 1127 -8 1160 -4 33 -7 67 -7 75 -1 13 -13 71 -46 230 -3 14 -9 30
-13 35 -4 6 -11 26 -15 45 -11 50 -31 98 -106 246 -112 224 -237 377 -381 471
-24 15 -45 30 -48 34 -3 3 -12 9 -20 12 -8 4 -28 16 -45 26 -34 22 -172 91
-225 114 -19 8 -52 22 -73 31 -21 10 -47 18 -57 19 -11 1 -20 6 -20 11 0 5 -3
6 -7 3 -3 -4 -12 -2 -20 4 -7 6 -13 9 -13 5 0 -3 -12 -1 -27 5 -25 9 -157 40
-238 56 -49 9 -684 11 -765 2z m520 -2713 c161 -11 280 -25 350 -41 14 -3 45
-7 70 -10 25 -2 58 -7 73 -11 29 -6 73 -14 95 -16 6 -1 12 -5 12 -9 0 -5 6 -6
13 -4 6 3 35 -1 62 -8 l50 -13 0 -215 c0 -248 -5 -299 -45 -453 -62 -243 -267
-476 -542 -616 -54 -27 -98 -47 -98 -44 0 2 -13 -2 -28 -10 -46 -24 -235 -75
-297 -80 -16 -2 -37 -6 -45 -9 -8 -3 -22 -5 -30 -6 -71 -1 -223 -12 -231 -16
-5 -4 -9 -1 -9 6 0 8 -3 9 -13 0 -8 -6 -17 -8 -20 -4 -4 3 -26 7 -49 9 -24 2
-53 6 -65 9 -13 3 -26 6 -30 6 -27 3 -140 51 -198 84 -185 103 -310 322 -321
558 -2 54 -6 103 -9 108 -4 5 -3 9 2 9 4 0 8 24 8 53 -2 190 134 446 288 544
51 32 182 98 217 108 14 4 30 12 37 17 7 5 17 7 23 3 5 -3 10 -1 10 5 0 6 4 9
9 5 5 -3 12 -1 16 5 4 6 10 8 15 5 5 -3 19 -1 33 4 24 9 54 16 132 27 22 3 41
7 43 9 5 4 377 -3 472 -9z"/>
<path d="M13430 12796 c-3 -2 -34 -7 -70 -10 -74 -6 -97 -10 -230 -38 -114
-23 -125 -26 -125 -28 0 -1 -10 -3 -22 -6 -58 -10 -318 -115 -333 -133 -3 -3
-23 -15 -45 -26 -46 -23 -168 -106 -173 -117 -2 -4 -10 -8 -18 -8 -8 0 -14 -5
-14 -10 0 -6 -8 -14 -17 -17 -31 -12 -196 -186 -257 -272 -94 -131 -191 -341
-202 -435 -1 -12 -3 -21 -4 -21 -1 0 -3 -9 -5 -20 -27 -140 -24 -423 4 -498 5
-14 8 -27 5 -30 -3 -2 11 -52 30 -109 30 -89 62 -159 130 -283 22 -40 88 -125
97 -125 5 0 9 -5 9 -12 0 -13 137 -149 192 -190 20 -15 42 -34 50 -41 30 -29
170 -115 268 -163 58 -29 177 -76 265 -104 88 -28 174 -57 190 -63 17 -6 35
-12 40 -13 28 -3 75 -17 75 -23 0 -4 8 -7 18 -8 10 -1 61 -15 113 -32 243 -77
354 -111 366 -111 7 0 13 -5 13 -11 0 -5 4 -8 9 -5 10 7 104 -23 186 -59 33
-15 62 -27 65 -27 3 0 16 -8 30 -17 14 -10 33 -21 42 -24 34 -12 168 -109 211
-153 42 -42 104 -148 112 -190 2 -10 4 -19 5 -19 6 0 12 -54 15 -131 3 -81 -1
-114 -19 -193 -8 -37 -59 -141 -68 -141 -4 0 -8 -7 -8 -15 0 -19 -91 -111
-151 -152 -66 -45 -278 -134 -344 -144 -5 -1 -20 -5 -32 -10 -13 -5 -44 -11
-70 -15 -27 -3 -57 -8 -68 -11 -59 -13 -231 -19 -303 -11 -18 3 -35 1 -38 -4
-3 -5 -10 -6 -15 -2 -5 3 -51 8 -102 10 -152 8 -273 19 -322 31 -11 2 -33 6
-50 9 -16 3 -55 10 -85 17 -30 6 -59 12 -65 13 -28 3 -274 72 -300 84 -11 5
-31 12 -45 15 -14 4 -88 33 -165 65 -218 90 -267 100 -323 64 -47 -31 -55 -73
-55 -284 0 -180 2 -200 23 -255 28 -71 98 -146 168 -177 26 -12 49 -22 52 -23
3 0 14 -6 25 -12 59 -33 281 -117 330 -125 11 -2 22 -6 25 -10 3 -3 21 -9 40
-12 34 -7 60 -12 70 -16 3 -1 10 -3 15 -4 14 -2 99 -19 105 -21 36 -10 150
-32 210 -40 24 -4 47 -8 50 -10 3 -1 41 -6 85 -9 44 -4 93 -9 110 -12 16 -3
83 -7 148 -9 65 -2 121 -6 124 -9 3 -3 13 -2 22 2 9 4 30 6 46 5 17 -2 35 -4
40 -4 14 -1 244 11 285 15 63 7 124 17 225 37 55 12 109 23 120 25 35 7 129
36 162 50 17 8 37 14 45 14 8 0 18 3 22 8 4 4 11 7 14 7 4 1 30 11 57 23 28
13 62 28 78 35 15 6 27 15 27 19 0 5 5 8 12 8 9 0 139 76 173 102 118 89 295
255 295 277 0 5 7 14 15 21 24 20 119 170 153 244 53 111 102 271 119 381 9
64 11 387 2 420 -4 16 -11 50 -14 75 -4 24 -10 51 -15 60 -4 8 -8 18 -9 23 -1
4 -1 8 -2 10 0 1 -2 9 -4 17 -1 8 -13 41 -25 72 -12 32 -21 61 -20 64 1 4 -2
10 -7 13 -4 3 -19 28 -33 56 -41 83 -101 167 -162 229 -32 32 -58 64 -58 69 0
6 -3 8 -6 5 -3 -3 -15 4 -27 16 -12 11 -42 37 -66 56 -24 19 -50 41 -57 48 -8
7 -14 10 -14 5 0 -4 -4 -3 -8 3 -12 18 -149 103 -236 145 -45 22 -81 39 -81
38 0 -1 -18 6 -40 15 -22 10 -110 38 -195 62 -85 25 -162 48 -170 51 -8 3 -19
7 -25 8 -5 2 -50 15 -100 30 -85 25 -122 36 -282 86 -38 11 -77 23 -88 26 -11
2 -27 7 -35 10 -8 2 -16 4 -18 4 -1 -1 -18 5 -37 13 -19 8 -35 13 -35 11 0 -5
-99 30 -107 38 -3 4 -12 7 -20 7 -24 0 -212 97 -298 155 -47 31 -105 77 -129
102 -46 47 -120 178 -110 194 3 5 1 9 -4 9 -5 0 -9 6 -10 13 -2 20 -13 141
-14 157 -1 14 9 99 15 130 13 64 78 190 99 190 6 0 8 3 5 7 -4 3 15 28 43 54
49 47 151 105 225 129 22 7 46 17 53 23 6 5 12 7 12 4 0 -4 17 0 39 7 46 17
175 43 251 52 30 4 58 8 62 10 4 3 9 0 13 -5 4 -7 15 -7 33 0 15 6 29 10 32 9
3 -2 15 -6 27 -11 12 -4 24 -5 27 -1 2 4 28 6 58 5 112 -4 274 -14 293 -17 11
-2 45 -7 75 -11 30 -4 105 -19 165 -32 61 -14 115 -26 120 -27 6 -1 16 -5 23
-9 6 -5 12 -6 12 -2 0 3 14 -1 30 -10 17 -9 30 -13 30 -10 0 6 91 -27 225 -83
177 -73 250 -84 299 -41 40 35 48 87 43 289 -5 202 -8 225 -25 242 -7 7 -12
18 -12 25 0 7 -4 13 -10 13 -5 0 -10 5 -10 10 0 20 -83 86 -161 127 -93 50
-314 127 -454 158 -11 3 -51 12 -90 20 -38 9 -83 18 -100 20 -45 6 -98 15
-104 19 -3 2 -35 7 -71 11 -36 4 -78 9 -95 11 -42 7 -500 16 -505 10z"/>
<path d="M5072 12651 c-15 -8 -32 -21 -39 -30 -15 -20 -32 -88 -25 -96 4 -3 7
-18 8 -33 1 -15 2 -27 4 -27 1 0 3 -9 5 -20 5 -37 13 -70 40 -155 15 -47 33
-105 40 -130 7 -25 20 -65 27 -90 8 -25 15 -48 16 -52 6 -23 8 -31 15 -48 3
-8 22 -69 41 -135 19 -66 42 -142 51 -170 9 -27 18 -57 20 -65 2 -8 10 -35 18
-60 8 -25 20 -67 27 -95 7 -27 16 -54 19 -60 3 -5 6 -14 7 -20 1 -5 18 -64 39
-130 20 -66 38 -127 40 -135 2 -8 12 -41 23 -72 11 -32 19 -58 16 -58 -2 0 1
-12 7 -27 6 -16 12 -35 14 -43 2 -8 12 -42 23 -75 17 -49 66 -211 76 -250 1
-5 11 -37 21 -70 11 -33 20 -63 21 -67 1 -5 2 -9 4 -10 1 -2 3 -10 5 -18 1 -9
19 -69 39 -135 21 -66 51 -165 68 -220 17 -55 35 -116 41 -135 6 -19 12 -39
13 -45 1 -5 11 -41 24 -80 34 -108 82 -268 85 -285 2 -8 4 -16 5 -17 2 -2 4
-7 5 -13 1 -5 3 -11 5 -12 1 -2 3 -11 5 -20 3 -18 23 -84 32 -108 3 -8 7 -19
9 -25 1 -5 17 -57 34 -115 18 -58 33 -109 35 -115 1 -5 4 -17 7 -25 3 -8 16
-49 28 -90 20 -69 37 -124 85 -280 10 -30 18 -59 19 -65 2 -12 43 -147 57
-190 6 -16 28 -90 49 -163 42 -143 94 -249 138 -280 49 -35 112 -50 208 -50
50 1 97 -2 103 -6 6 -4 11 -4 11 1 0 4 49 8 110 8 60 0 110 -4 110 -8 0 -5 6
-5 13 0 6 4 53 6 103 5 65 -2 102 1 128 12 20 8 36 13 36 10 0 -3 18 9 40 26
58 46 98 119 116 214 3 17 10 48 20 89 1 4 2 8 3 10 2 1 4 13 7 26 2 13 25
107 50 210 25 102 48 197 51 211 3 14 6 30 7 35 2 6 6 28 11 50 4 22 10 44 13
50 3 5 7 18 9 30 3 21 10 57 13 65 1 3 3 10 5 15 1 6 3 12 4 15 1 3 5 16 7 29
2 14 20 90 40 170 19 80 37 155 38 166 2 11 6 27 9 35 6 17 26 95 32 125 12
63 16 81 22 95 3 8 7 22 8 30 1 8 16 75 34 148 33 134 38 156 47 201 3 14 7
28 9 31 2 4 7 22 10 41 4 19 8 39 9 44 1 6 5 16 9 23 5 6 6 12 4 12 -3 0 -1
17 4 38 5 20 12 46 14 58 3 11 23 93 45 183 22 89 42 172 44 184 3 12 5 22 6
22 1 0 4 11 6 25 10 52 13 65 15 68 2 2 1 1 14 57 10 47 12 54 14 58 2 1 4 12
7 24 2 12 20 89 40 170 20 81 38 159 40 173 3 14 8 34 11 45 4 11 8 25 9 30 1
6 5 24 9 40 9 42 13 60 15 60 1 0 3 12 5 26 2 14 9 45 15 70 7 24 14 54 16 66
2 12 8 32 13 45 8 22 9 21 16 -12 4 -19 34 -145 67 -280 33 -135 61 -252 63
-260 2 -8 17 -73 35 -145 18 -71 34 -139 36 -150 7 -38 46 -200 52 -215 7 -20
9 -29 16 -67 4 -18 20 -88 37 -155 17 -68 35 -141 40 -163 5 -22 13 -58 19
-80 6 -22 13 -51 16 -65 3 -14 7 -33 10 -42 3 -10 7 -28 9 -40 3 -13 18 -75
34 -140 17 -64 33 -129 36 -145 2 -15 9 -43 14 -61 5 -18 10 -33 10 -35 0 -1
2 -9 4 -17 3 -8 11 -42 18 -75 17 -78 10 -52 69 -290 29 -115 54 -219 55 -230
2 -11 11 -48 20 -82 9 -35 18 -71 20 -80 1 -10 8 -38 15 -63 7 -25 14 -52 15
-60 2 -8 4 -15 5 -15 1 0 3 -11 5 -25 2 -14 16 -72 30 -130 15 -58 28 -112 30
-120 2 -8 8 -33 13 -55 12 -44 22 -88 27 -121 2 -12 7 -30 13 -40 6 -11 11
-23 12 -29 4 -26 35 -77 65 -108 63 -64 100 -70 450 -72 180 0 315 3 323 8 7
6 15 7 18 4 9 -9 97 32 120 57 43 45 72 104 109 221 20 66 38 125 39 130 1 6
7 24 13 40 6 17 21 64 33 105 12 41 24 82 27 90 3 8 7 20 8 25 2 6 24 76 49
156 26 80 48 154 50 165 2 10 10 33 16 49 7 17 14 40 16 52 2 12 9 35 16 50 6
16 12 33 14 40 1 6 16 56 33 110 16 54 30 100 30 103 0 3 12 39 26 80 14 41
27 84 30 95 2 11 34 112 70 225 36 113 67 213 68 223 0 9 6 17 11 17 5 0 7 3
3 6 -3 3 -1 18 5 33 5 14 11 33 13 41 2 8 18 60 35 115 18 55 33 104 35 110 1
5 5 17 8 25 9 25 30 95 29 97 -1 2 6 22 14 45 9 24 17 51 19 61 2 9 7 23 11
29 5 7 9 19 9 28 1 8 23 82 50 164 26 82 48 154 49 160 1 6 4 16 8 21 3 6 9
26 13 45 4 19 10 40 13 45 4 6 7 15 8 20 1 6 23 78 49 160 26 83 49 157 50
165 2 8 4 15 5 15 1 0 3 7 5 15 2 8 10 35 18 60 25 73 99 313 101 324 1 6 4
16 7 21 4 6 10 24 14 40 12 45 12 45 15 48 1 1 3 9 5 17 9 35 16 58 34 115 36
111 113 358 116 374 2 9 4 16 5 16 5 0 11 46 14 90 3 83 -10 127 -47 153 -33
22 -37 22 -353 22 -339 -1 -358 -3 -429 -51 -19 -13 -35 -30 -35 -36 0 -7 -3
-13 -8 -13 -7 0 -29 -40 -50 -92 -10 -25 -99 -356 -108 -401 -2 -11 -11 -45
-20 -76 -10 -31 -17 -58 -16 -61 0 -3 -8 -37 -19 -75 -11 -39 -22 -81 -25 -95
-3 -14 -13 -56 -24 -95 -28 -101 -70 -266 -76 -295 -3 -14 -8 -34 -11 -45 -4
-11 -8 -24 -9 -30 -6 -26 -60 -234 -129 -497 -3 -10 -7 -26 -9 -35 -20 -81
-40 -160 -76 -293 -23 -85 -43 -164 -45 -175 -3 -11 -6 -27 -7 -35 -2 -8 -7
-21 -11 -27 -5 -7 -6 -13 -3 -13 2 0 0 -15 -5 -32 -6 -18 -12 -40 -14 -48 -2
-8 -17 -69 -34 -135 -18 -66 -34 -128 -36 -138 -2 -10 -7 -27 -10 -37 -3 -10
-8 -29 -11 -42 -8 -38 -12 -53 -14 -55 -2 -2 -3 -6 -4 -10 -8 -34 -17 -71 -21
-88 -2 -11 -13 -54 -24 -95 -11 -41 -34 -129 -51 -195 -17 -66 -45 -172 -62
-235 -16 -63 -31 -119 -32 -125 -16 -73 -30 -125 -35 -125 -4 0 -42 148 -57
220 0 3 -4 16 -7 30 -4 14 -9 36 -11 50 -3 14 -10 40 -15 59 -6 19 -9 37 -6
39 2 3 0 12 -5 22 -5 9 -12 29 -15 43 -3 15 -7 37 -10 50 -3 12 -7 31 -9 42
-2 11 -14 61 -26 110 -11 50 -28 119 -36 155 -13 58 -22 94 -30 125 -3 15 -12
56 -19 89 -3 16 -8 33 -10 36 -2 4 -7 21 -10 39 -3 17 -12 60 -21 94 -8 34
-17 73 -20 87 -3 14 -7 33 -10 42 -3 9 -7 25 -9 35 -9 41 -35 151 -44 187 -5
22 -8 44 -5 48 3 4 0 8 -6 8 -6 0 -10 6 -8 13 1 6 -3 35 -10 62 -7 28 -15 59
-17 70 -2 11 -9 40 -16 65 -6 25 -13 56 -15 70 -3 14 -18 77 -34 140 -16 63
-31 126 -33 140 -2 14 -6 32 -10 40 -6 16 -17 69 -23 113 -2 15 -8 36 -14 47
-6 11 -9 23 -8 27 0 4 -2 19 -5 33 -4 14 -18 77 -33 140 -14 63 -32 137 -40
164 -8 27 -12 51 -9 54 2 3 0 12 -5 22 -5 9 -12 32 -15 51 -3 19 -17 79 -31
134 -14 55 -27 109 -29 120 -3 22 -9 48 -59 255 -19 80 -37 157 -40 173 -20
110 -69 187 -146 228 -45 24 -46 24 -385 24 -330 0 -341 -1 -382 -22 -22 -12
-44 -19 -47 -16 -3 4 -6 2 -6 -3 0 -6 -8 -19 -18 -30 -38 -42 -75 -122 -88
-193 -7 -37 -32 -143 -76 -321 -22 -91 -41 -174 -44 -185 -3 -17 -7 -34 -19
-85 -1 -3 -7 -32 -14 -65 -7 -33 -16 -64 -19 -69 -3 -5 -7 -21 -8 -35 -2 -14
-15 -73 -29 -131 -52 -213 -78 -325 -79 -342 0 -10 -4 -18 -9 -18 -4 0 -6 -4
-3 -8 3 -5 1 -24 -4 -43 -13 -45 -98 -401 -105 -436 -3 -16 -11 -52 -19 -80
-8 -29 -12 -53 -9 -53 3 0 0 -7 -7 -15 -7 -8 -10 -15 -8 -15 3 0 -1 -26 -9
-57 -7 -32 -16 -68 -19 -81 -2 -12 -14 -62 -25 -110 -12 -48 -23 -95 -25 -104
-2 -10 -6 -26 -8 -35 -6 -25 -37 -154 -42 -175 -2 -10 -6 -28 -10 -40 -3 -13
-7 -34 -10 -48 -3 -14 -23 -98 -44 -188 -22 -90 -42 -177 -45 -194 -3 -17 -8
-34 -10 -38 -2 -3 -6 -18 -9 -33 -9 -40 -20 -90 -30 -134 -2 -10 -9 -40 -16
-68 -6 -27 -15 -66 -20 -85 -5 -19 -17 -66 -26 -105 -23 -98 -30 -107 -39 -49
-5 27 -9 51 -9 54 -1 3 -4 10 -8 16 -4 6 -10 26 -13 45 -3 19 -10 49 -15 67
-4 17 -6 32 -3 32 3 0 0 6 -6 13 -6 8 -13 31 -17 52 -3 21 -10 49 -15 62 -5
13 -6 23 -3 23 2 0 0 8 -5 19 -6 10 -13 33 -16 52 -3 19 -22 92 -41 164 -19
71 -36 142 -37 157 -1 16 -5 28 -9 28 -4 0 -7 8 -7 18 0 17 -3 35 -13 62 -6
14 -114 441 -123 485 -8 39 -27 110 -32 125 -3 8 -8 24 -10 35 -2 11 -19 80
-39 153 -19 73 -32 137 -29 142 4 6 2 10 -3 10 -9 0 -13 16 -26 87 -2 11 -9
36 -15 55 -9 27 -28 102 -46 178 -1 8 -11 44 -20 80 -9 36 -19 76 -22 89 -2
14 -6 28 -9 33 -3 5 -7 19 -10 32 -2 13 -18 77 -35 142 -17 66 -32 128 -33
140 -2 11 -6 25 -9 31 -3 5 -8 20 -10 34 -3 13 -12 51 -21 85 -8 33 -17 69
-19 80 -2 10 -7 26 -11 35 -4 9 -8 27 -10 40 -2 13 -6 31 -9 39 -6 16 -35 130
-43 168 -2 12 -25 101 -49 197 -59 227 -97 296 -188 336 -51 22 -60 23 -385
24 -269 0 -338 -2 -360 -14z"/>
<path d="M14747 6803 c-1 0 -60 -4 -132 -8 -71 -4 -132 -8 -135 -10 -3 -1 -34
-6 -70 -10 -67 -7 -86 -9 -155 -21 -22 -3 -51 -7 -65 -9 -14 -2 -36 -6 -50 -9
-14 -4 -45 -11 -70 -16 -25 -5 -56 -12 -70 -15 -14 -3 -36 -8 -50 -11 -14 -2
-36 -9 -50 -13 -19 -7 -212 -68 -240 -76 -3 -1 -14 -5 -25 -10 -213 -86 -263
-110 -405 -193 -112 -67 -109 -64 -170 -123 -103 -100 -69 -200 68 -201 42 0
68 3 151 16 25 5 117 15 196 22 22 2 56 6 75 8 74 9 281 27 480 42 213 15 707
9 800 -10 14 -3 41 -7 60 -10 19 -3 50 -9 68 -15 17 -5 32 -7 32 -4 0 3 6 0
13 -6 8 -6 17 -8 20 -4 4 3 7 2 7 -4 0 -5 6 -10 13 -10 26 0 93 -39 129 -76
69 -71 89 -209 61 -417 -8 -58 -15 -117 -16 -132 -1 -16 -6 -28 -10 -28 -5 0
-7 -8 -6 -17 1 -10 0 -20 -1 -23 -4 -11 -11 -46 -15 -70 -1 -14 -4 -25 -5 -25
-1 0 -3 -8 -6 -17 -19 -81 -77 -277 -111 -378 -8 -25 -16 -52 -18 -60 -2 -8
-4 -16 -5 -17 -2 -2 -3 -6 -5 -10 -1 -5 -4 -15 -7 -23 -3 -8 -22 -62 -42 -120
-21 -58 -44 -123 -53 -145 -17 -44 -20 -51 -53 -140 -12 -33 -25 -69 -30 -80
-4 -11 -16 -40 -25 -65 -9 -25 -22 -56 -28 -70 -6 -14 -11 -27 -12 -30 -1 -3
-6 -16 -12 -30 -6 -14 -18 -42 -26 -62 -9 -21 -14 -38 -11 -38 3 0 -1 -10 -7
-22 -26 -48 -19 -110 16 -144 22 -22 145 -16 145 7 0 5 6 9 14 9 22 0 196 163
294 277 88 101 292 386 292 407 0 3 14 29 31 58 68 115 154 295 213 448 21 52
41 104 46 115 8 18 23 63 25 75 0 3 11 34 22 70 12 36 27 85 34 110 15 54 14
51 22 70 5 13 16 61 32 138 3 12 8 32 11 45 3 12 7 36 10 52 4 35 12 70 14 70
2 0 7 26 14 80 47 328 40 580 -18 673 -21 32 -123 102 -151 102 -8 0 -16 4
-19 9 -3 4 -20 12 -38 16 -18 4 -37 9 -43 11 -5 1 -19 5 -30 8 -11 2 -32 9
-46 14 -15 6 -30 8 -33 5 -3 -3 -12 -1 -19 5 -8 7 -17 9 -20 6 -3 -3 -11 -2
-19 2 -7 4 -24 9 -38 10 -14 1 -61 6 -105 13 -126 17 -151 20 -264 27 -93 6
-370 12 -374 7z"/>
<path d="M81 6476 c-45 -16 -81 -69 -81 -119 0 -54 31 -108 95 -163 57 -49 94
-82 150 -134 17 -15 52 -43 78 -64 27 -20 46 -36 42 -36 -4 0 15 -16 42 -36
26 -20 53 -41 58 -48 10 -11 154 -126 329 -262 111 -86 338 -251 447 -324 44
-30 86 -60 92 -65 23 -20 433 -283 515 -330 9 -5 55 -33 102 -62 47 -28 102
-59 123 -69 20 -10 37 -21 37 -26 0 -4 5 -8 10 -8 6 0 53 -25 105 -55 53 -30
102 -55 109 -55 8 0 17 -7 20 -16 4 -9 9 -14 12 -12 3 3 37 -12 77 -34 74 -40
454 -229 542 -268 28 -13 84 -38 125 -57 41 -19 148 -66 237 -104 201 -86 216
-92 225 -93 3 -1 10 -4 14 -8 4 -5 14 -8 21 -8 8 0 33 -8 56 -19 23 -10 85
-34 137 -53 52 -20 104 -39 115 -43 11 -5 29 -10 39 -12 11 -2 24 -7 30 -12
12 -9 67 -25 79 -23 4 1 7 -3 7 -8 0 -5 3 -9 8 -8 4 1 58 -15 119 -36 62 -20
114 -36 116 -34 2 2 11 -3 20 -11 10 -7 17 -11 17 -7 0 3 15 0 34 -8 19 -8 37
-12 40 -8 3 3 6 1 6 -4 0 -5 12 -11 26 -12 15 -1 32 -6 38 -11 6 -5 14 -10 19
-10 4 -1 8 -1 10 -2 1 0 13 -2 27 -5 14 -2 36 -9 50 -14 25 -10 253 -74 324
-91 21 -5 48 -14 59 -20 15 -8 18 -8 12 1 -6 9 -2 9 14 0 12 -6 32 -13 44 -16
12 -2 51 -11 86 -20 36 -9 72 -17 80 -19 9 -2 44 -10 79 -18 34 -9 62 -13 62
-10 0 3 6 1 13 -5 6 -5 35 -14 62 -18 56 -9 64 -11 68 -14 2 -2 31 -7 77 -15
14 -2 70 -12 125 -23 226 -45 445 -82 575 -98 19 -2 49 -6 65 -9 56 -9 166
-22 240 -29 22 -2 40 -5 40 -6 0 -1 18 -3 40 -5 22 -1 70 -5 106 -9 129 -13
165 -16 249 -21 47 -3 102 -7 123 -10 198 -27 1393 -27 1602 0 17 2 71 7 120
10 119 9 156 12 240 21 39 4 88 8 110 10 22 1 40 3 40 4 0 2 16 4 120 15 33 3
71 8 85 10 14 3 48 8 75 11 28 3 75 9 105 14 30 5 75 12 100 15 25 3 52 8 60
10 8 2 33 6 55 10 22 3 76 12 120 20 140 25 150 26 165 29 27 5 94 19 115 23
11 2 31 6 45 8 14 2 36 7 50 10 14 3 45 10 70 15 25 5 56 12 69 14 66 14 290
67 319 75 18 5 33 10 35 9 1 0 20 5 42 11 22 6 51 12 65 15 14 2 25 5 25 6 0
1 7 3 15 5 37 8 153 39 240 64 136 40 184 54 193 57 4 1 8 2 10 4 1 1 9 3 17
5 32 6 281 85 300 95 9 4 31 11 50 15 19 4 40 11 46 16 6 5 21 11 35 13 13 3
26 5 29 6 3 2 8 2 13 1 4 0 7 3 7 9 0 6 3 9 8 8 10 -2 89 24 202 67 52 20 100
38 105 39 6 2 21 8 35 14 67 28 86 35 98 38 8 1 28 9 45 17 59 27 262 112 269
112 4 0 13 6 20 12 6 7 18 13 26 13 8 0 42 13 76 29 33 16 102 48 151 71 114
53 397 195 495 249 41 23 91 50 110 59 19 9 36 20 38 25 2 4 9 7 17 7 7 0 18
7 25 15 7 8 16 12 21 9 5 -3 9 -1 9 3 0 5 19 19 43 31 23 12 60 33 82 47 22
14 48 28 58 31 9 4 17 10 17 15 0 5 4 9 9 9 5 0 61 33 123 73 262 168 477 321
512 364 29 36 68 104 63 110 -3 2 -2 16 3 31 17 63 -38 161 -118 209 -80 47
-224 36 -339 -26 -14 -8 -211 -86 -385 -153 -15 -5 -30 -9 -34 -8 -4 1 -10 -2
-13 -7 -3 -5 -28 -16 -56 -25 -27 -10 -90 -32 -140 -51 -49 -19 -99 -37 -110
-39 -11 -1 -22 -6 -25 -9 -7 -8 -491 -171 -575 -193 -5 -2 -17 -6 -25 -9 -20
-8 -83 -27 -106 -32 -10 -3 -64 -18 -119 -35 -91 -28 -186 -55 -225 -65 -8 -2
-27 -8 -42 -14 -16 -6 -28 -8 -28 -6 0 2 -12 0 -27 -6 -16 -6 -35 -12 -43 -14
-8 -2 -96 -25 -195 -50 -99 -26 -191 -49 -205 -51 -14 -3 -33 -7 -42 -10 -10
-3 -30 -7 -45 -10 -15 -3 -31 -8 -37 -11 -6 -4 -22 -8 -36 -9 -14 -1 -34 -4
-45 -7 -105 -26 -434 -97 -475 -102 -8 -1 -28 -5 -45 -8 -16 -4 -43 -9 -60
-12 -16 -3 -41 -7 -55 -10 -14 -3 -52 -10 -85 -15 -33 -5 -70 -12 -81 -14 -12
-2 -39 -7 -60 -10 -36 -6 -78 -13 -129 -22 -11 -2 -67 -11 -125 -19 -58 -9
-114 -18 -125 -20 -11 -3 -40 -7 -65 -10 -25 -2 -65 -8 -90 -11 -25 -4 -57 -8
-72 -8 -16 -1 -28 -3 -28 -6 0 -3 -19 -6 -43 -7 -23 -1 -62 -4 -87 -8 -25 -4
-63 -8 -85 -10 -22 -1 -40 -4 -40 -5 0 -1 -16 -3 -35 -5 -120 -10 -179 -15
-205 -19 -16 -3 -68 -8 -115 -11 -47 -4 -101 -8 -120 -10 -46 -5 -181 -14
-431 -30 -174 -11 -453 -17 -764 -17 -176 1 -333 1 -350 0 -38 0 -23 -1 -210
6 -192 6 -360 15 -435 21 -30 3 -89 7 -130 10 -41 3 -106 7 -145 10 -38 3 -93
8 -120 10 -28 2 -71 6 -95 9 -50 6 -143 16 -205 21 -51 5 -141 15 -180 21 -16
2 -50 6 -75 9 -58 5 -127 14 -165 20 -33 6 -90 14 -145 20 -47 5 -83 11 -155
24 -33 5 -80 13 -105 16 -25 3 -52 8 -60 10 -8 3 -35 7 -60 10 -25 3 -52 7
-60 10 -8 2 -35 7 -60 11 -48 7 -55 8 -140 24 -30 6 -64 13 -75 15 -11 2 -33
6 -50 9 -16 3 -46 9 -65 13 -19 3 -42 8 -50 10 -8 2 -26 6 -40 8 -14 2 -68 14
-120 25 -52 11 -106 23 -120 26 -14 2 -33 7 -42 10 -9 3 -27 7 -40 9 -66 13
-153 33 -153 35 0 1 -13 4 -29 6 -16 3 -108 26 -205 51 -97 25 -183 46 -191
47 -9 1 -20 4 -25 8 -14 7 -67 21 -87 22 -9 1 -20 4 -24 9 -4 4 -18 7 -30 7
-13 0 -26 5 -29 10 -4 6 -10 8 -14 6 -4 -3 -81 18 -171 46 -244 74 -293 89
-310 93 -8 2 -78 24 -155 50 -77 26 -144 48 -150 49 -5 1 -15 5 -21 8 -6 4
-21 9 -35 12 -26 5 -159 51 -199 68 -14 6 -29 12 -35 14 -5 1 -48 16 -95 34
-47 18 -89 33 -95 34 -11 3 -36 12 -70 26 -11 4 -38 15 -60 23 -94 36 -282
110 -300 117 -11 5 -96 41 -190 80 -93 39 -193 82 -220 96 -28 13 -53 24 -57
24 -3 0 -44 17 -90 39 -45 21 -105 48 -133 61 -27 12 -97 45 -155 74 -58 28
-107 51 -110 52 -9 1 -65 28 -70 34 -3 3 -30 16 -60 30 -30 13 -63 31 -72 39
-10 8 -18 11 -18 8 0 -4 -22 7 -50 23 -27 16 -50 27 -50 24 0 -4 -6 -2 -12 4
-7 6 -60 35 -118 65 -121 63 -226 119 -290 155 -310 174 -319 177 -399 148z"/>
</g>
</svg>
